<svg xmlns="http://www.w3.org/2000/svg" width="28.537" height="28.543" viewBox="0 0 28.537 28.543">
  <g id="Layer_x0020_1" transform="translate(-0.01 0.02)">
    <g id="_2402507784160" transform="translate(0.01 -0.02)">
      <path id="Path_964" data-name="Path 964" d="M3.4,84.373l-1.338-1.31,2.731-2.7L6.1,81.644,3.4,84.375ZM4.3,76.024a3.841,3.841,0,0,1,.811-2.31,7.406,7.406,0,0,1,.764-.8,7.169,7.169,0,0,0,.767-.794L14.349,79.8c-.777.532-1.163,1.5-2.561,2.094a3.7,3.7,0,0,1-3.563-.542L5.9,79.049a6.045,6.045,0,0,1-1.069-1.215A3.965,3.965,0,0,1,4.3,76.025Zm10.592,1.9a8.921,8.921,0,0,1-.95-.945l-.333-.336c.169-.252,1.388-1.414,1.77-1.8a.973.973,0,0,1,.794-.432.935.935,0,0,1,.572,1.688c-.395.391-1.6,1.656-1.855,1.825ZM9.819,72.846l-1.3-1.268c.184-.27,1.391-1.414,1.783-1.812,1.1-1.116,2.064.2,1.63.961A27.734,27.734,0,0,1,9.819,72.846ZM7.31,70.337c-.528-.353-.794-.467-1.379.125-.216.219-.395.395-.613.614C3.684,72.71,2.629,73.5,2.629,76.247a4.88,4.88,0,0,0,.317,1.578,6.277,6.277,0,0,0,.3.653,3.761,3.761,0,0,1,.336.613L1.724,80.972C1.359,81.337.01,82.521.01,82.993c0,.613.278.752.654,1.129l.836.836.836.836c.376.376.516.654,1.129.654.385,0,.846-.54,1.074-.767l2.829-2.8a3.76,3.76,0,0,1,.613.336,5.353,5.353,0,0,0,5.431-.257,22.45,22.45,0,0,0,2.528-2.378c.662-.659.54-.811.182-1.492a25.823,25.823,0,0,0,2.287-2.341,2.637,2.637,0,0,0-2.858-3.974c-1.365.313-2.7,2.439-3.22,2.578a.9.9,0,0,1-.146-.134c-.075-.069-.1-.091-.176-.159l-.326-.343a3.521,3.521,0,0,0-.636-.591c.568-.849,2.3-1.888,2.623-3.175a2.63,2.63,0,0,0-2.289-3.292,2.456,2.456,0,0,0-1.676.386c-.515.307-1.963,2-2.393,2.29Z" transform="translate(-0.01 -57.904)" fill="#01ec28" fill-rule="evenodd"/>
      <path id="Path_965" data-name="Path 965" d="M93.933,14.311,86.311,6.659a18.352,18.352,0,0,1,1.513-1.525,3.642,3.642,0,0,1,4.582-.056,9.955,9.955,0,0,1,.79.773L95.5,8.169a3.572,3.572,0,0,1,.741,1.6,3.4,3.4,0,0,1-.176,1.993,4.054,4.054,0,0,1-.574.987,17.915,17.915,0,0,1-1.562,1.559Zm1.908-8.237L94.625,4.866c-.079-.081-.023-.009-.079-.088L97.235,2.06l1.338,1.31-2.731,2.7ZM93.263,3.551a3.761,3.761,0,0,1-.613-.336,6.07,6.07,0,0,0-.692-.311A5.409,5.409,0,0,0,86.531,4.01L84.692,5.85c-.934.93-.344,1.245.558,2.146l7.915,7.915c.93.934,1.245.344,2.146-.558C96.934,13.731,98,12.923,98,10.183A4.88,4.88,0,0,0,97.684,8.6c-.1-.261-.184-.429-.3-.653a2.861,2.861,0,0,0-.157-.29.929.929,0,0,1-.179-.324c.522-.78,3.567-3.228,3.567-3.9,0-.613-.278-.752-.654-1.129L98.293.634c-.376-.376-.516-.654-1.129-.654-.473,0-1.659,1.353-2.021,1.714L93.263,3.547Z" transform="translate(-72.082 0.02)" fill="#01ec28" fill-rule="evenodd"/>
      <path id="Path_966" data-name="Path 966" d="M124.111,168.571c0,.474-.072,1.13.212,1.461.319.372,1.516.566,1.516-.847,0-.565.042-1.407-.8-1.47A.848.848,0,0,0,124.111,168.571Z" transform="translate(-106.218 -143.538)" fill="#01ec28" fill-rule="evenodd"/>
      <path id="Path_967" data-name="Path 967" d="M61.874,13.381c0,.536-.092,1.515.8,1.581,1.3.1.974-2.013.713-2.318A.886.886,0,0,0,61.874,13.381Z" transform="translate(-52.955 -10.591)" fill="#01ec28" fill-rule="evenodd"/>
      <path id="Path_968" data-name="Path 968" d="M167.869,124.841a.856.856,0,0,0,.3.816c.223.164,2.266.623,2.266-.76a.848.848,0,0,0-.892-.781c-.517,0-1.672-.133-1.672.725Z" transform="translate(-143.676 -106.218)" fill="#01ec28" fill-rule="evenodd"/>
      <path id="Path_969" data-name="Path 969" d="M12.38,62.675c0,.95,1.065.836,1.728.836a.87.87,0,0,0,.538-1.541C14.37,61.768,12.38,61.411,12.38,62.675Z" transform="translate(-10.597 -52.86)" fill="#01ec28" fill-rule="evenodd"/>
      <path id="Path_970" data-name="Path 970" d="M155.11,155.673c0,.507.037.515.432.907a3.4,3.4,0,0,0,.607.565.857.857,0,0,0,.9-1.457c-.421-.414-.778-.976-1.437-.685a.819.819,0,0,0-.5.672Z" transform="translate(-132.756 -132.591)" fill="#01ec28" fill-rule="evenodd"/>
      <path id="Path_971" data-name="Path 971" d="M28.282,29.248c.664,0,.948-.284.948-.948,0-.275-1.17-1.988-2.052-1.105a.837.837,0,0,0,.03,1.232c.231.233.695.82,1.075.82Z" transform="translate(-23.043 -23.058)" fill="#01ec28" fill-rule="evenodd"/>
    </g>
  </g>
</svg>
