<svg xmlns="http://www.w3.org/2000/svg" width="63.374" height="78.684" viewBox="0 0 63.374 78.684">
  <path id="Path_956" data-name="Path 956" d="M39.684,1395.557c4.965,4.228,7.762,12.356,1.906,18.96-3.967,4.474-1.422,7.269,2.9,10.571,7.768,5.942,16.075,8.849,22.406,17.053,1.1,1.422,1.249,2.49,2.227,3.883,2.768-3.844,1.994-5.67,10.813-11.846,5.508-3.857,18.029-9.941,18.717-15.195a4.86,4.86,0,0,0-1.332-3.87c-6.258-7.722-4.982-13.037,1.28-19.489-4.335-6.517-4.626-14.135-5.454-23.535-2.115.866-3.4,2.975-10.19,4.874-9.512,2.659-24.128,2.349-33.211-2.13-1.984-.978-3.053-2.225-4.651-2.74a90.364,90.364,0,0,1-1.421,13.1c-1.048,5.25-1.945,6.651-3.99,10.364Z" transform="translate(-37.143 -1369.93)" fill="#d6d6d6" stroke="#6e6e6e" stroke-width="3" fill-rule="evenodd"/>
</svg>
