<?xml version="1.0" encoding="utf-8"?>
<!-- Generator: Adobe Illustrator 27.0.0, SVG Export Plug-In . SVG Version: 6.00 Build 0)  -->
<svg version="1.1" id="Layer_1" xmlns="http://www.w3.org/2000/svg" xmlns:xlink="http://www.w3.org/1999/xlink" x="0px" y="0px"
	 viewBox="0 0 64.7 76.3" style="enable-background:new 0 0 64.7 76.3;" xml:space="preserve">
<style type="text/css">
	.st0{fill-rule:evenodd;clip-rule:evenodd;fill:#FFE2A7;stroke:#B47800;stroke-width:3;}
</style>
<path id="Path_957" class="st0" d="M1.3,9.7c2.3,2.5,3.6,3.3,4.6,8.3c0.7,4.1,0.8,8.3,0.2,12.4c-1.6,14.9-10.7,25.4,8,35.9
	c4.6,2.6,14.5,5.5,17.7,8.2l8.7-4.1c3-1.2,6-2.5,8.8-3.9c19.3-10.6,10.2-19.7,8.4-36.5c-0.9-8.8-0.7-14.9,4.9-20.3
	c-6-7.9-15.2-3.2-23.6-5.1c-4-0.9-4.5-1.9-7.3-3c-5,2.9-8.7,4.2-15.9,3.3C9.9,4.2,3.5,5.8,1.3,9.7L1.3,9.7z"/>
</svg>
