<svg xmlns="http://www.w3.org/2000/svg" width="64.708" height="76.306" viewBox="0 0 64.708 76.306">
  <path id="Path_957" data-name="Path 957" d="M2219.292,700.66c2.251,2.537,3.626,3.333,4.63,8.324a39.91,39.91,0,0,1,.211,12.383c-1.611,14.9-10.7,25.409,7.971,35.881,4.578,2.568,14.49,5.474,17.738,8.213l8.673-4.085a89.392,89.392,0,0,0,8.841-3.939c19.295-10.646,10.153-19.693,8.441-36.454-.9-8.8-.662-14.9,4.887-20.32-6.02-7.866-15.221-3.226-23.563-5.054-4.035-.885-4.532-1.9-7.281-3.019-5.033,2.946-8.666,4.239-15.949,3.292-6.064-.788-12.446.86-14.6,4.779Z" transform="translate(-2217.976 -690.922)" fill="#d6d6d6" stroke="#6e6e6e" stroke-width="3" fill-rule="evenodd"/>
</svg>
