<svg xmlns="http://www.w3.org/2000/svg" width="65.782" height="71.82" viewBox="0 0 65.782 71.82">
  <path id="Path_955" data-name="Path 955" d="M2197.55,14.034c10.165,27.536-1.916,29.639,1.879,42.24,3.983,13.23,26.183,14.579,28.858,20.287,4.207-2.943.155-1.291,8.239-4.577,7.713-3.134,19.052-6.914,21.452-15.853,2.675-9.965-4.972-15.776-1.345-32.438.838-3.852,2.212-6.365,3.187-9.659a58.349,58.349,0,0,0-8.738-5.353c-11.854,6.988-27.792,8.688-40.221,2.562-1.634-.805-3.424-2.024-4.843-2.536-2.229,1.34-6.7,3.666-8.466,5.328Z" transform="translate(-2195.775 -6.993)" fill="#d6d6d6" stroke="#6e6e6e" stroke-width="3" fill-rule="evenodd"/>
</svg>
