<?xml version="1.0" encoding="utf-8"?>
<!-- Generator: Adobe Illustrator 27.0.0, SVG Export Plug-In . SVG Version: 6.00 Build 0)  -->
<svg version="1.1" id="Layer_1" xmlns="http://www.w3.org/2000/svg" xmlns:xlink="http://www.w3.org/1999/xlink" x="0px" y="0px"
	 viewBox="0 0 63.3 74.8" style="enable-background:new 0 0 63.3 74.8;" xml:space="preserve">
<style type="text/css">
	.st0{fill-rule:evenodd;clip-rule:evenodd;fill:#FFE2A7;stroke:#B47800;stroke-width:3;}
</style>
<path id="Path_952" class="st0" d="M8.2,13.8c-0.1,4.5-2.1,6-6.5,5.4C0.3,30.7,6.4,47,12,55.6l7.1,8.7c1,1,10.5,8.8,12.4,9
	c1.8,0.2,11.1-7.6,12.2-8.6c3.6-3.6,6.7-7.7,9.4-12c4.7-8,9.5-22.3,8.5-33.5c-4.5,0.8-6.4-1-6.6-5.4c-5.5,0.7-11,0.3-15-2.7
	c-5.6-4.1-6.3-6.9-8.7-8.9C27,11.1,18.5,15.3,8.2,13.8L8.2,13.8z"/>
</svg>
