<?xml version="1.0" encoding="utf-8"?>
<!-- Generator: Adobe Illustrator 27.0.0, SVG Export Plug-In . SVG Version: 6.00 Build 0)  -->
<svg version="1.1" id="Layer_1" xmlns="http://www.w3.org/2000/svg" xmlns:xlink="http://www.w3.org/1999/xlink" x="0px" y="0px"
	 viewBox="0 0 65.8 71.8" style="enable-background:new 0 0 65.8 71.8;" xml:space="preserve">
<style type="text/css">
	.st0{fill-rule:evenodd;clip-rule:evenodd;fill:#FFE2A7;stroke:#B47800;stroke-width:3;}
</style>
<path id="Path_955" class="st0" d="M1.8,7c10.2,27.5-1.9,29.6,1.9,42.2c4,13.2,26.2,14.6,28.9,20.3c4.2-2.9,0.2-1.3,8.2-4.6
	c7.7-3.1,19.1-6.9,21.5-15.9c2.7-10-5-15.8-1.3-32.4c0.8-3.9,2.2-6.4,3.2-9.7c-2.8-2-5.7-3.8-8.7-5.4c-11.9,7-27.8,8.7-40.2,2.6
	c-1.6-0.8-3.4-2-4.8-2.5C8,3.1,3.5,5.4,1.8,7L1.8,7z"/>
</svg>
