<?xml version="1.0" encoding="utf-8"?>
<!-- Generator: Adobe Illustrator 27.0.0, SVG Export Plug-In . SVG Version: 6.00 Build 0)  -->
<svg version="1.1" id="Layer_1" xmlns="http://www.w3.org/2000/svg" xmlns:xlink="http://www.w3.org/1999/xlink" x="0px" y="0px"
	 viewBox="0 0 63.4 78.7" style="enable-background:new 0 0 63.4 78.7;" xml:space="preserve">
<style type="text/css">
	.st0{fill-rule:evenodd;clip-rule:evenodd;fill:#FFE2A7;stroke:#B47800;stroke-width:3;}
</style>
<path id="Path_956" class="st0" d="M2.5,25.6c5,4.2,7.8,12.4,1.9,19c-4,4.5-1.4,7.3,2.9,10.6c7.8,5.9,16.1,8.8,22.4,17.1
	c1.1,1.4,1.2,2.5,2.2,3.9c2.8-3.8,2-5.7,10.8-11.8c5.5-3.9,18-9.9,18.7-15.2c0.1-1.4-0.3-2.8-1.3-3.9c-6.3-7.7-5-13,1.3-19.5
	c-4.3-6.5-4.6-14.1-5.5-23.5C53.9,3,52.6,5.1,45.8,7c-9.5,2.7-24.1,2.3-33.2-2.1c-2-1-3.1-2.2-4.7-2.7c-0.2,4.4-0.6,8.8-1.4,13.1
	C5.5,20.5,4.6,21.9,2.5,25.6L2.5,25.6z"/>
</svg>
