<svg xmlns="http://www.w3.org/2000/svg" width="68.695" height="76.589" viewBox="0 0 68.695 76.589">
  <path id="Path_958" data-name="Path 958" d="M774.629,2054.87a71.747,71.747,0,0,0-14.26,3.234c-4.921,1.77-9.616,3.236-9.666,7.451-.113,9.8,3.649,19.883,6.887,27.989,4.145,10.375,6.127,13.507,12.431,22.136a57.985,57.985,0,0,0,8.519,8.748c5.333,4.331,4.811,4.834,10.282-.188,13.1-12.02,20.688-26.749,25.365-44.187,1.2-4.47,2.491-10.483,2.153-15.413-.172-2.516-.1-2.139-4.292-4.288-10.039-5.145-25.737-7.233-37.421-5.481Z" transform="translate(-749.202 -2052.741)" fill="#d6d6d6" stroke="#707070" stroke-width="3" fill-rule="evenodd"/>
</svg>
