<?xml version="1.0" encoding="utf-8"?>
<!-- Generator: Adobe Illustrator 27.0.0, SVG Export Plug-In . SVG Version: 6.00 Build 0)  -->
<svg version="1.1" id="Layer_1" xmlns="http://www.w3.org/2000/svg" xmlns:xlink="http://www.w3.org/1999/xlink" x="0px" y="0px"
	 viewBox="0 0 63.9 76.3" style="enable-background:new 0 0 63.9 76.3;" xml:space="preserve">
<style type="text/css">
	.st0{fill-rule:evenodd;clip-rule:evenodd;fill:#D6D6D6;stroke:#6E6E6E;stroke-width:4;}
</style>
<path id="Path_953" class="st0" d="M10.2,10.8c-1.6,5.4-4,5.8-7.7,6.4C1.7,35.6-0.5,45,14.2,57.9c4.9,4.3,11.8,9.4,16,14.3l1.6,1.5
	c1.3-0.8,3.1-3.3,5.6-5.4c1.9-1.6,3.5-3.2,5.7-5.1c5.8-5.2,5.2-3.4,11.5-10.5c9.8-11.2,7.5-23.2,6.6-35.5c-4.8-0.6-6.4-2.3-7.7-6.4
	c-5.8,1-11.5,3-18.1-3.8c-1.1-1.1-2.5-3.3-3.5-4.2c-2.9,3.1-5.7,8.9-14.5,9.2C14,12,12.9,11.1,10.2,10.8L10.2,10.8z"/>
</svg>
