<?xml version="1.0" encoding="utf-8"?>
<!-- Generator: Adobe Illustrator 27.0.0, SVG Export Plug-In . SVG Version: 6.00 Build 0)  -->
<svg version="1.1" id="Layer_1" xmlns="http://www.w3.org/2000/svg" xmlns:xlink="http://www.w3.org/1999/xlink" x="0px" y="0px"
	 viewBox="0 0 68.7 76.6" style="enable-background:new 0 0 68.7 76.6;" xml:space="preserve">
<style type="text/css">
	.st0{fill-rule:evenodd;clip-rule:evenodd;fill:#FFE2A7;stroke:#B47800;stroke-width:3;}
</style>
<path id="Path_958" class="st0" d="M25.4,2.1c-4.9,0.6-9.6,1.7-14.3,3.2c-4.9,1.8-9.6,3.2-9.7,7.5c-0.1,9.8,3.6,19.9,6.9,28
	c4.1,10.4,6.1,13.5,12.4,22.1c2.5,3.2,5.4,6.1,8.5,8.7c5.3,4.3,4.8,4.8,10.3-0.2c13.1-12,20.7-26.7,25.4-44.2
	c1.2-4.5,2.5-10.5,2.2-15.4C67,9.4,67,9.8,62.8,7.6C52.8,2.5,37.1,0.4,25.4,2.1L25.4,2.1z"/>
</svg>
